<?xml version="1.0" encoding="utf-8"?>
<!-- Generator: Adobe Illustrator 16.0.4, SVG Export Plug-In . SVG Version: 6.00 Build 0)  -->
<!DOCTYPE svg PUBLIC "-//W3C//DTD SVG 1.1//EN" "http://www.w3.org/Graphics/SVG/1.1/DTD/svg11.dtd">
<svg version="1.1" id="Layer_1" xmlns="http://www.w3.org/2000/svg" xmlns:xlink="http://www.w3.org/1999/xlink" x="0px" y="0px"
	 width="792px" height="576px" viewBox="0 0 792 576" enable-background="new 0 0 792 576" xml:space="preserve">
<polygon fill="#44BFBF" points="396,25.336 421.206,0 441.63,29.343 470.844,8.79 485.839,41.106 518.154,25.982 527.332,60.496 
	561.846,51.188 564.818,86.736 600.366,83.634 597.264,119.181 632.812,122.154 623.505,156.668 658.018,165.846 642.765,198.162 
	675.21,213.156 654.657,242.37 684,262.793 658.664,288 684,313.206 654.657,333.63 675.21,362.844 642.765,377.839 
	658.018,410.154 623.505,419.332 632.812,453.846 597.264,456.818 600.366,492.366 564.818,489.264 561.846,524.812 
	527.332,515.505 518.154,550.018 485.839,534.765 470.844,567.21 441.63,546.657 421.206,576 396,550.664 370.793,576 
	350.37,546.657 321.156,567.21 306.162,534.765 273.846,550.018 264.668,515.505 230.154,524.812 227.181,489.264 191.634,492.366 
	194.736,456.818 159.188,453.846 168.496,419.332 133.982,410.154 149.106,377.839 116.79,362.844 137.343,333.63 108,313.206 
	133.336,288 108,262.793 137.343,242.37 116.79,213.156 149.106,198.162 133.982,165.846 168.496,156.668 159.188,122.154 
	194.736,119.181 191.634,83.634 227.181,86.736 230.154,51.188 264.668,60.496 273.846,25.982 306.162,41.106 321.156,8.79 
	350.37,29.343 370.793,0 "/>
<g>
	<path fill="#FFFFFF" d="M284.518,301.446c3.848,5.069,8.957,8.955,14.366,11.14c10.057,3.705,23.52,2.039,32.332-4.132
		c16.426-11.503,19.947-35.468,8.305-52.096c-7.994-11.422-19.633-16.109-29.731-15.608c-6.371,0.283-13.419,3.428-19.83,7.918
		l-5.611-8.014c10.216-7.155,13.118-16.652,13.681-18.836c2.441-8.878,0.697-19.897-5.474-28.713
		c-9.958-14.225-27.25-19.733-43.874-8.09c-5.407,3.788-12.519,10.261-13.76,21.281c-0.979,7.553,1.246,15.848,5.674,22.602
		l-8.414,5.891c-6.812-10.159-8.498-21.518-7.016-30.917c2.263-13.825,10.695-21.821,17.904-26.872
		c22.035-15.431,45.514-9.182,58.278,9.052c7.994,11.417,13.088,29.351,1.551,46.986c17.648-5.494,35.037,1.438,45.698,16.665
		c15.708,22.439,10.064,51.474-11.771,66.765c-12.017,8.417-29.446,11.664-44.252,5.016c-5.548-2.385-11.82-6.652-16.868-13.864
		L284.518,301.446z"/>
	<path fill="#FFFFFF" d="M448.271,185.271l18.627-13.047l5.611,8.015l-18.629,13.046l17.814,25.445l-8.815,6.173l-17.812-25.445
		l-71.91,50.361l1.898-169.133L448.271,185.271z M439.459,191.443l-54.983-78.54l-1.304,117.959L439.459,191.443z"/>
	<path fill="#FFFFFF" d="M392.696,339.671c-4.388-2.376-10.277-4.307-15.031-4.611c-4.063-0.182-10.788,0.592-18.503,5.996
		c-13.405,9.387-16.917,24.261-8.101,36.855c3.699,5.283,7.253,7.334,13.328,8.228c6.905,1.218,13.548-0.104,20.189-1.426
		l16.98-3.414c10.339-2.094,20.212-3.559,29.881-1.854c11.738,2.072,20.128,8.002,26.954,17.755
		c17.492,24.987,10.672,54.587-13.698,71.656c-8.937,6.258-21.387,12.255-37.129,9.655c-11.253-1.806-21.857-8.307-29.374-15.15
		l11.779-14.305c5.994,6.396,13.51,10.218,20.213,11.576c10.016,1.768,17.853-1.304,24.758-6.138
		c18.483-12.945,17.973-32.265,8.442-45.875c-4.266-6.096-9.791-10.097-17.794-11.152c-6.419-0.954-13.407,0.307-22.789,2.034
		l-16.168,2.846c-6.988,1.262-15.682,3.111-25.899,1.486c-9.873-1.562-17.733-5.442-24.845-15.599
		c-14.647-20.924-8.416-46.178,13.52-61.54c8.327-5.833,16.168-8.902,25.998-9.126c8.043-0.183,16.554,2.031,23.725,5.786
		L392.696,339.671z"/>
	<path fill="#FFFFFF" d="M471.874,269.083l84.903,121.278l-15.029,10.526l-84.902-121.278l-32.901,23.042l-9.956-14.222
		l80.834-56.611l9.954,14.222L471.874,269.083z"/>
</g>
</svg>
