<?xml version="1.0" encoding="utf-8"?>
<!-- Generator: Adobe Illustrator 21.1.0, SVG Export Plug-In . SVG Version: 6.00 Build 0)  -->
<svg version="1.1" id="Layer_1" xmlns="http://www.w3.org/2000/svg" xmlns:xlink="http://www.w3.org/1999/xlink" x="0px" y="0px"
	 viewBox="0 0 740.56 224.281" enable-background="new 0 0 740.56 224.281" xml:space="preserve">
<g>
	<path fill="#456CB3" d="M325.206,86.463c-1.126-7.013-22.221-9.364-47.119-5.245c-24.892,4.124-44.161,13.15-43.033,20.166
		c1.127,7.018,22.22,9.363,47.118,5.246C307.066,102.505,326.333,93.482,325.206,86.463"/>
	<path fill="#456CB3" d="M445.73,90.329c-1.127-7.013-22.232-9.363-47.121-5.246c-24.897,4.123-44.16,13.147-43.033,20.165
		c1.128,7.02,22.224,9.363,47.111,5.241C427.585,106.372,446.858,97.342,445.73,90.329"/>
	<path fill="#456CB3" d="M406.822,50.571c-1.128-7.013-22.219-9.364-47.114-5.246c-24.903,4.125-44.166,13.151-43.039,20.167
		c1.128,7.018,22.228,9.362,47.119,5.246C388.686,66.619,407.948,57.589,406.822,50.571"/>
	<path fill="#456CB3" d="M477.451,83.118c0,0,37.715,2.341,39.13-3.803c1.578-6.924-17.061-17.211-41.641-22.982
		c-4.159-0.977-12.1-2.359-12.1-2.359l-9.376,18.181l-11.608-16.683c0,0-13.597-0.015-14.272,2.949
		c-1.291,5.681,26.855,20.607,26.855,20.607l11.721,19.875L477.451,83.118z"/>
	<path fill="#456CB3" d="M739.401,162.1C719.943,103.744,443.66,5.5,430.69,1.621l-5.929-1.35l-0.005-0.005v0.003h-0.005
		l0.005,0.005l-7.202,14.37L409.444,0l-31.409,2.48C103.323,37.042,26.275,94.747,5.25,119.901
		c-5.184,6.199-6.591,14.611-3.945,22.07l8.583,31.998c0,0,17.8,55.205,260.089,49.96c58.971-1.266,246.11-28.311,246.11-28.311
		l-0.081-0.23l0.092,0.221v0.005c187.757,20.594,180.146,16.736,194.1,12.869c12.183-3.371,25.318-26.772,28.469-32.69
		c0.057-0.092,0.103-0.194,0.159-0.297c0.344-0.65,0.554-1.065,0.554-1.065c-0.016,0.021-0.046,0.041-0.062,0.061
		C740.886,171.059,741.03,166.971,739.401,162.1z M258.226,163.825c-81.315,4.213-156.864-0.63-170.358-30.829
		C56.713,63.262,421.478,23.707,421.478,23.707l0.799-0.157l-3.73-6.76c0.021-0.002,0.031-0.002,0.041-0.005l68.033,118.946
		C469.695,138.764,360.366,157.862,258.226,163.825z M684.441,160.833c-45.467,3.278-167.097-23.899-167.133-23.909v-0.005
		l-12.571,6.87c0,0-30.953-75.557-69.643-119.724l122.461,48.786c0,0,110.565,46.45,131.097,78.095
		C691.92,155.987,689.985,159.118,684.441,160.833z"/>
</g>
</svg>
