<?xml version="1.0" encoding="utf-8"?>
<!-- Generator: Adobe Illustrator 21.0.0, SVG Export Plug-In . SVG Version: 6.00 Build 0)  -->
<svg version="1.1" id="DP_Logo" xmlns="http://www.w3.org/2000/svg" xmlns:xlink="http://www.w3.org/1999/xlink" x="0px" y="0px"
	 viewBox="0 0 200 147.1" style="enable-background:new 0 0 200 147.1;" xml:space="preserve">
<style type="text/css">
	.st0{fill:#AA1E22;}
</style>
<g id="Logo">
	<path id="P" class="st0" d="M121.2,106.7c-6.7-1-14.2,2.7-20.9,10.2c-0.1-0.1-0.2-0.3-0.2-0.4c0.3-6,1.3-11.7,4.3-17
		c3.2-5.7,7.9-9.5,14.3-11c0.4-0.1,0.8-0.1,1.2-0.2c0.4-0.1,0.8-0.1,1.3-0.2c0-7.6,0-15,0-22.7c-3-0.5-5.8-0.3-8.6,1
		c-2.8,1.3-4.2,3.8-4.9,6.9c-0.3-0.3-0.5-0.4-0.6-0.5c-2.3-4.8-3.3-9.9-2.2-15.2c1.1-5.6,5.7-9.6,11.3-10.1c1.2-0.1,2.5-0.1,3.7-0.1
		c0.4,0,0.8-0.1,1.2-0.2c0-0.4,0.1-0.8,0.1-1.1c0.1-3.7,0.2-7.4,0.2-11.2c0-2.5-0.2-5.1-0.6-7.6c-0.2-1.5-0.9-3.1-1.7-4.4
		c-3.5-6.4-12.8-6.1-16.1-0.6c-0.6,1.1-1.2,2.2-1.7,3.3c-0.4,1.1-0.6,2.4-1.2,3.6c-0.3-1.3-0.7-2.6-0.8-3.9
		C97.6,11,110.5,0.3,123.3,2.3c4.1,0.7,7.2,2.7,9.9,5.7c3.5,3.9,4.9,8.7,5.7,13.7c0.2,1.3,0.3,2.6,0.5,4.1c0.5-0.2,0.9-0.4,1.3-0.6
		c2-1.4,4.1-2.9,6.1-4.2c0.8-0.6,1.2-1.2,1.1-2.2c-0.1-2.7,0-5.4,0-8.3c0.8,0,1.5,0,2.4,0c0,2.4,0,4.7,0,7.1
		c0.2,0.1,0.3,0.2,0.5,0.2c8.1-5.8,16.1-11.7,24.4-17.6c6.2,8.3,14.8,12.3,24.8,14.1c-0.6,0.6-1,1.1-1.4,1.5c-2.5,2.4-5,4.9-7.5,7.3
		c-0.6,0.6-0.9,1.3-0.9,2.2c0.1,20.1,0.1,40.2,0.2,60.3c0,3.3,1.1,6.4,2.2,9.4c0.2,0.5,0.4,1.1,0.7,1.8
		c-14.3,0.9-23.8,8.8-30.9,20.6c-3.8-2.3-7.5-4.7-12.1-6c0,11.8,0,23.4,0,35.1c-7.9,0.4-13.5-3.4-18.3-9
		c-4.7,6.1-10.2,10.2-18.3,9.6c0.1-0.3,0.1-0.5,0.2-0.6c4.2-4.9,6-10.7,7-17C121.6,124.4,121.8,112,121.2,106.7z M150.9,87.4
		c8.1,2.2,14.6,7.1,21.3,12c0-25.1,0-49.8,0-74.6c-6.6-0.2-10.8-3.7-13.6-9.4c-2.2,1.7-4.1,3.2-6.1,4.6c-1.2,0.8-1.6,1.8-1.6,3.2
		c0,20.7,0,41.4,0,62C150.9,85.9,150.9,86.5,150.9,87.4z M147.8,23.1c-2.2,1.7-4,3.2-6,4.4c-1.5,1-2,2.2-2,3.9
		c0.1,28.8,0,57.7,0,86.5c0,4,0,8,0.1,12.1c0.1,3,0.7,5.9,2.2,8.5c1.2,2.1,3.1,3.5,5.7,4.1C147.8,102.8,147.8,63.2,147.8,23.1z"/>
	<path id="D_Stroke" class="st0" d="M42,91.8c0-23.8,0-47.5,0-71.3c-0.7,0-1.4,0-2,0.1c-4.8,0.5-9.6,1.1-14.4,1.5
		c-4.3,0.3-8.5,0-12.6-1.3c-2.8-0.9-5.2-2.4-7.4-4.4C2,13.1,0.9,8.8,0.3,4.3C0.2,3.1,0.2,1.9,0.1,0.5c2.4,0.6,4.6,1.2,6.7,1.7
		c4.8,1,9.6,1.5,14.4,1.1c7.5-0.6,14.9-1.4,22.4-2.1c7-0.7,14-1.6,21-0.9c8.7,0.9,15.2,5.4,19.1,13.1c2.4,4.6,3.5,9.7,3.9,14.8
		c0.4,5.2,0.6,10.5,0.7,15.8c0.1,13.5,0.1,27,0,40.4c0,4.4,0.9,8.4,2.6,12.4c0.3,0.6,0.5,1.3,0.9,2.2c-15.6,2.3-29.8,7.4-41.5,18
		c-16.5-9.5-33-9.6-49.5-0.6c0.3-1.9,5.7-8.6,10.3-12.7c4.3-3.8,9-6.8,14.4-8.9C30.8,92.6,36.3,91.9,42,91.8z M45,91.8
		c0.5,0.1,1,0.3,1.4,0.3c5.2,0.8,9.9,2.7,14,5.9c1.5,1.2,3,2.5,4.4,3.9c0.8,0.8,1.4,1,2.3,0.4c0.2-0.1,0.4-0.2,0.7-0.3
		c2.4-1,2.2-0.5,2.2-3.1c0-21.6-0.1-43.2-0.1-64.9c0-2.3-0.3-4.4-0.9-6.6c-1.2-4.5-4.1-7.1-8.5-8c-5.1-1.2-10.2-0.1-15.4,0.4
		C45,43.9,45,67.8,45,91.8z"/>
	<path id="D_Stem" class="st0" d="M15,69.4c-2.7-0.1-5.5-0.6-8.3,0c-2.5,0.5-4.2,2.2-4.6,4.8c-0.1,0.5-0.2,1-0.2,1.6
		c-0.2-0.1-0.3-0.1-0.4-0.2c-1.4-5-2-10.1-0.7-15.2c1.3-5.2,4.6-8.2,9.9-9c1.4-0.2,2.8-0.3,4.3-0.5c0.2-1.4,0.3-2.8,0.6-4.2
		c1.3-7,4.8-12.5,11-16.2c3-1.8,6.1-3.4,9.6-4.3c0,0.3,0,0.6-0.1,0.7c-1.7,3.4-2.1,7.1-2.1,10.9c-0.1,12.2-0.2,24.3-0.4,36.5
		c0,2.2-0.9,4.1-1.9,6c-1.3,2.5-3.2,4.6-5.5,6.4c-4.5,3.5-9.6,5.3-15,6.8c0-0.2,0-0.4,0-0.4c3-2.7,3.9-6.3,4-10.1
		c0.2-4.4,0.1-8.7,0.1-13.1C15.2,69.8,15.1,69.7,15,69.4z"/>
</g>
</svg>
